# xmcd CD database file
#
# Track frame offsets:
#	150
#	26717
#	52594
#	70358
#	91457
#	111999
#	125696
#	140600
#	156753
#	180078
#	199531
#	214986
#	229857
#	244660
#	261790
#	289906
#
# Disc length: 4277 seconds
#
# Revision: 3
# Processed by: cddbd v1.5.1PL0 Copyright (c) Steve Scherf et al.
# Submitted via: CDex 1.51
#
DISCID=e710b310
DTITLE=Various Artist - Planets of the Universe 2 CD 1
DYEAR=1996
DGENRE=New Age
TTITLE0=Oliver Shanty and Friends - Sacral Nirvana
TTITLE1=Peter Seiler - Fly Me Home
TTITLE2=Ray Bach feat. Freeze Frame - Powerhouse
TTITLE3=Wolfgang Riechmann - Wunderbar
TTITLE4=Holle Mangler - Desire
TTITLE5=Eimear Quinn - The Voice
TTITLE6=Linus Project - Take Five
TTITLE7=Mike Oldfield - Ommadawn
TTITLE8=Mind Over Matter - Jack The Bear
TTITLE9=Optical Image - Back To Basics
TTITLE10=Michael Rother - Esperanza
TTITLE11=Ron Boots - Gibberish
TTITLE12=Axel Wilhelm - Diana
TTITLE13=Lissi Tennenbini - Sadest Day
TTITLE14=Pegasus - The Prison Of Thoughts
TTITLE15=Kitaro - Silk Road
EXTD=YEAR: 1996
EXTT0=
EXTT1=
EXTT2=
EXTT3=
EXTT4=
EXTT5=
EXTT6=
EXTT7=
EXTT8=
EXTT9=
EXTT10=
EXTT11=
EXTT12=
EXTT13=
EXTT14=
EXTT15=
PLAYORDER=
